<?xml version="1.0" encoding="utf-8"?><svg xmlns="http://www.w3.org/2000/svg" xmlns:xlink="http://www.w3.org/1999/xlink"><symbol viewBox="0 0 124.7 124.7" id="ad-elevator"><path d="M26.2 111.2c-1.4 0-2.5-1.1-2.5-2.5V11.1c0-1.4 1.1-2.5 2.5-2.5h17.5c1.4 0 2.5 1.1 2.5 2.5s-1.1 2.5-2.5 2.5h-15v95.2c0 1.3-1.1 2.4-2.5 2.4zm71.5 0c-1.4 0-2.5-1.1-2.5-2.5V13.6h-15c-1.4 0-2.5-1.1-2.5-2.5s1.1-2.5 2.5-2.5h17.5c1.4 0 2.5 1.1 2.5 2.5v97.7c0 1.3-1.1 2.4-2.5 2.4z"/><path d="M78.9 17.4H45.7c-.8 0-1.5-.7-1.5-1.5V5.6c0-.8.7-1.5 1.5-1.5h33.2c.8 0 1.5.7 1.5 1.5v10.3c0 .8-.7 1.5-1.5 1.5zm-31.7-3h30.2V7.1H47.2v7.3zm15.1 96.7c-.8 0-1.5-.7-1.5-1.5v-45c0-.8.7-1.5 1.5-1.5s1.5.7 1.5 1.5v45c0 .8-.7 1.5-1.5 1.5z"/><path d="M62.4 56.2c-.8 0-1.5-.7-1.5-1.5v-38c0-.8.7-1.5 1.5-1.5s1.5.7 1.5 1.5v38c0 .9-.7 1.5-1.5 1.5zm-43.2-.7h-8.7c-.5 0-1-.3-1.3-.8s-.3-1 0-1.5l4.3-7.3c.3-.5.8-.7 1.3-.7s1 .3 1.3.7l4.3 7.3c.3.5.3 1 0 1.5s-.6.8-1.2.8zm-6-3h3.4l-1.7-2.9-1.7 2.9zm1.7 17.4c-.5 0-1-.3-1.3-.7l-4.3-7.3c-.3-.5-.3-1 0-1.5s.8-.8 1.3-.8h8.7c.5 0 1 .3 1.3.8s.3 1 0 1.5l-4.3 7.3c-.4.4-.9.7-1.4.7zm-1.7-7.3l1.7 2.9 1.7-2.9h-3.4zm105.3 49.5H4c-1.4 0-2.5-1.1-2.5-2.5s1.1-2.5 2.5-2.5h114.5c1.4 0 2.5 1.1 2.5 2.5s-1.1 2.5-2.5 2.5z"/></symbol><symbol viewBox="0 0 124.7 124.7" id="ad-events"><path d="M4.7 89.1h115m0 2.5H4.7c-1.4 0-2.5-1.1-2.5-2.5s1.1-2.5 2.5-2.5h115c1.4 0 2.5 1.1 2.5 2.5s-1.1 2.5-2.5 2.5zm-57.5-1v19.8"/><path d="M62.2 112.9c-1.4 0-2.5-1.1-2.5-2.5V90.6c0-1.4 1.1-2.5 2.5-2.5s2.5 1.1 2.5 2.5v19.8c0 1.4-1.1 2.5-2.5 2.5zm-19.5-2.5h40"/><path d="M82.7 112.9h-40c-1.4 0-2.5-1.1-2.5-2.5s1.1-2.5 2.5-2.5h40c1.4 0 2.5 1.1 2.5 2.5s-1.1 2.5-2.5 2.5zM21.5 82.6c-.8 0-1.5-.7-1.5-1.5V54.3c0-.8.7-1.5 1.5-1.5h82.9c.8 0 1.5.7 1.5 1.5v26.2c0 .8-.7 1.5-1.5 1.5s-1.5-.7-1.5-1.5V55.8H23V81c0 .9-.6 1.6-1.5 1.6zM89 49.4c-.8 0-1.5-.7-1.5-1.5V33.6H36.7V48c0 .8-.7 1.5-1.5 1.5s-1.5-.7-1.5-1.5V32.1c0-.8.7-1.5 1.5-1.5H89c.8 0 1.5.7 1.5 1.5V48c0 .8-.6 1.4-1.5 1.4zm-8.7-20c-.8 0-1.5-.7-1.5-1.5v-3.3H45.7v3.3c0 .8-.7 1.5-1.5 1.5s-1.5-.7-1.5-1.5v-4.8c0-.8.7-1.5 1.5-1.5h36.1c.8 0 1.5.7 1.5 1.5v4.8c0 .9-.7 1.5-1.5 1.5zm-17.7-9.6c-3.9 0-7.1-3.2-7.1-7.2s3.2-7.2 7.1-7.2 7.1 3.2 7.1 7.2-3.2 7.2-7.1 7.2zm0-9.4c-1.1 0-2.1 1-2.1 2.2s.9 2.2 2.1 2.2 2.1-1 2.1-2.2-1-2.2-2.1-2.2z"/></symbol><symbol viewBox="0 0 124.7 124.7" id="ad-outdoor"><path d="M118 79.8H75.9c-1.4 0-2.5-1.1-2.5-2.5s1.1-2.5 2.5-2.5h39.6V13.6H7.5v61.2h37.1c1.4 0 2.5 1.1 2.5 2.5s-1.1 2.5-2.5 2.5H5c-1.4 0-2.5-1.1-2.5-2.5V11.1c0-1.4 1.1-2.5 2.5-2.5h113c1.4 0 2.5 1.1 2.5 2.5v66.3c0 1.3-1.1 2.4-2.5 2.4z"/><path d="M116.8 71.7H6.5c-.8 0-1.5-.7-1.5-1.5s.7-1.5 1.5-1.5h110.3c.8 0 1.5.7 1.5 1.5s-.7 1.5-1.5 1.5zm-70.9-7.9H6.5c-.8 0-1.5-.7-1.5-1.5s.7-1.5 1.5-1.5h39.4c.8 0 1.5.7 1.5 1.5s-.7 1.5-1.5 1.5zm70.9.1H74.5c-.8 0-1.5-.7-1.5-1.5s.7-1.5 1.5-1.5h42.3c.8 0 1.5.7 1.5 1.5s-.7 1.5-1.5 1.5z"/><path d="M67.3 104.3H53.2c-.8 0-1.5-.7-1.5-1.5V71c0-.8.7-1.5 1.5-1.5s1.5.7 1.5 1.5v30.3h11V71.7c0-.8.7-1.5 1.5-1.5s1.5.7 1.5 1.5v31.1c.1.9-.6 1.5-1.4 1.5z"/><path d="M88.6 113.6H33.1c-.8 0-1.6-.4-2.1-1.1-.5-.7-.6-1.6-.2-2.3L38 92.5c.4-.9 1.3-1.6 2.3-1.6h4.4c1.4 0 2.5 1.1 2.5 2.5S46.1 96 44.7 96H42l-5.1 12.6h47.6L77.7 96h-2.1c-1.4 0-2.5-1.1-2.5-2.5s1.1-2.5 2.5-2.5h3.6c.9 0 1.8.5 2.2 1.3l9.4 17.6c.4.8.4 1.7-.1 2.5-.4.7-1.2 1.2-2.1 1.2z"/></symbol><symbol viewBox="0 0 124.7 124.7" id="ad-polygraphy"><path d="M73 81.6h-.3l-15-3c-.8-.2-1.3-.9-1.2-1.7l3-17c.1-.5.5-1 1-1.2l57-20c.7-.2 1.4 0 1.8.7.4.6.2 1.4-.3 1.9l-45 40c-.3.1-.6.3-1 .3zm-13.2-5.7l12.8 2.6L111.3 44l-49 17.2-2.5 14.7z"/><path d="M80.3 107.7h-.2c-.6-.1-1.1-.5-1.3-1.1l-7.3-26.1c-.2-.6 0-1.1.4-1.5l45-40c.6-.5 1.4-.5 1.9 0 .6.5.7 1.3.4 1.9L81.5 107c-.1.4-.6.7-1.2.7zm-5.6-27.1l6.1 21.8 31.4-55.1-37.5 33.3z"/><path d="M61 61.6c-.4 0-.7-.1-1-.4l-20-17c-.5-.4-.6-1-.4-1.6.2-.6.7-1 1.4-1l77-3c.7 0 1.4.5 1.5 1.2.1.7-.3 1.5-1 1.7l-57 20c-.1 0-.3.1-.5.1zM44.9 44.4l16.4 14L108.1 42l-63.2 2.4z"/><path d="M104.2 118.6H6c-1.4 0-2.5-1.1-2.5-2.5V43.2c0-.7.3-1.3.7-1.8l27.5-27c.5-.5 1.1-.7 1.7-.7l70.7-.1c.7 0 1.3.3 1.8.7.5.5.7 1.1.7 1.8v16.2c0 1.4-1.1 2.5-2.5 2.5s-2.5-1.1-2.5-2.5V18.6l-67.1.1-26 25.6v69.3h93.2V82.8c0-1.4 1.1-2.5 2.5-2.5s2.5 1.1 2.5 2.5v33.3c0 1.3-1.1 2.5-2.5 2.5z"/><path d="M33.5 45.5H6.6c-.8 0-1.5-.7-1.5-1.5s.7-1.5 1.5-1.5H32V17.1c0-.8.7-1.5 1.5-1.5s1.5.7 1.5 1.5V44c0 .8-.6 1.5-1.5 1.5z"/></symbol><symbol viewBox="0 0 124.7 124.7" id="ad-smm"><path d="M119.5 89.4H7.7c-1.4 0-2.5-1.1-2.5-2.5V7.4c0-1.4 1.1-2.5 2.5-2.5h111.8c1.4 0 2.5 1.1 2.5 2.5v79.5c0 1.4-1.1 2.5-2.5 2.5zm-109.3-5H117V9.9H10.2v74.5zm80.6 26H34.5c-1.4 0-2.5-1.1-2.5-2.5v-9c0-1.4 1.1-2.5 2.5-2.5h56.3c1.4 0 2.5 1.1 2.5 2.5v9c0 1.4-1.1 2.5-2.5 2.5zm-53.8-5h51.3v-4H37v4z"/><path d="M57.4 81.8H9.5c-.8 0-1.5-.7-1.5-1.5s.7-1.5 1.5-1.5h47.9c.8 0 1.5.7 1.5 1.5s-.7 1.5-1.5 1.5zm60.3 0H69.8c-.8 0-1.5-.7-1.5-1.5s.7-1.5 1.5-1.5h47.9c.8 0 1.5.7 1.5 1.5s-.6 1.5-1.5 1.5zm-87.9-19c-.4 0-.8-.2-1.1-.5-.5-.6-.5-1.6.2-2.1l26.6-22.5c.6-.5 1.4-.5 2 0l17.3 15.7 18.7-18.7c.6-.6 1.5-.6 2.1 0 .6.6.6 1.5 0 2.1L75.8 56.5c-.6.6-1.5.6-2.1.1L56.4 40.8 30.7 62.5c-.2.2-.6.3-.9.3z"/><circle cx="29.4" cy="62.2" r="4.5"/><circle cx="56.3" cy="38.8" r="4.5"/><circle cx="75" cy="55.3" r="4.5"/><circle cx="94.5" cy="35.8" r="4.5"/></symbol><symbol viewBox="0 0 124.7 124.7" id="ad-video"><path d="M119.7 27.2c-1.4 0-2.5-1.1-2.5-2.5v-11H98.9v8.2c0 1.4-1.1 2.5-2.5 2.5h-66c-1.4 0-2.5-1.1-2.5-2.5v-8.2h-18v11c0 1.4-1.1 2.5-2.5 2.5s-2.5-1.1-2.5-2.5V11.2c0-1.4 1.1-2.5 2.5-2.5h23c1.4 0 2.5 1.1 2.5 2.5v8.2h61v-8.2c0-1.4 1.1-2.5 2.5-2.5h23.3c1.4 0 2.5 1.1 2.5 2.5v13.5c0 1.4-1.1 2.5-2.5 2.5zm0 85H96.4c-1.4 0-2.5-1.1-2.5-2.5v-8.2h-61v8.2c0 1.4-1.1 2.5-2.5 2.5h-23c-1.4 0-2.5-1.1-2.5-2.5V96.2c0-1.4 1.1-2.5 2.5-2.5s2.5 1.1 2.5 2.5v11h18V99c0-1.4 1.1-2.5 2.5-2.5h66c1.4 0 2.5 1.1 2.5 2.5v8.2h18.3v-11c0-1.4 1.1-2.5 2.5-2.5s2.5 1.1 2.5 2.5v13.5c0 1.4-1.1 2.5-2.5 2.5zM7.4 47.9c-1.4 0-2.5-1.1-2.5-2.5V35.1c0-1.4 1.1-2.5 2.5-2.5s2.5 1.1 2.5 2.5v10.3c0 1.4-1.2 2.5-2.5 2.5zm0 20c-1.4 0-2.5-1.1-2.5-2.5V55.1c0-1.4 1.1-2.5 2.5-2.5s2.5 1.1 2.5 2.5v10.3c0 1.4-1.2 2.5-2.5 2.5zm0 21c-1.4 0-2.5-1.1-2.5-2.5V76.1c0-1.4 1.1-2.5 2.5-2.5s2.5 1.1 2.5 2.5v10.3c0 1.4-1.2 2.5-2.5 2.5zm112-41c-1.4 0-2.5-1.1-2.5-2.5V35.1c0-1.4 1.1-2.5 2.5-2.5s2.5 1.1 2.5 2.5v10.3c0 1.4-1.2 2.5-2.5 2.5zm0 20c-1.4 0-2.5-1.1-2.5-2.5V55.1c0-1.4 1.1-2.5 2.5-2.5s2.5 1.1 2.5 2.5v10.3c0 1.4-1.2 2.5-2.5 2.5zm0 21c-1.4 0-2.5-1.1-2.5-2.5V76.1c0-1.4 1.1-2.5 2.5-2.5s2.5 1.1 2.5 2.5v10.3c0 1.4-1.2 2.5-2.5 2.5zm-23.4 1H30.5c-.8 0-1.5-.7-1.5-1.5V35.1c0-.8.7-1.5 1.5-1.5H96c.8 0 1.5.7 1.5 1.5v53.3c0 .8-.6 1.5-1.5 1.5zm-64-3h62.5V36.6H32v50.3z"/><path d="M53 77.6c-.3 0-.5-.1-.8-.2-.5-.3-.7-.8-.7-1.3V49.2c0-.5.3-1 .7-1.3.5-.3 1-.3 1.5 0L78 61.3c.5.3.8.8.8 1.3s-.3 1-.8 1.3L53.8 77.4c-.3.1-.5.2-.8.2zm1.5-25.8v21.8l19.7-10.9-19.7-10.9z"/></symbol><symbol viewBox="0 0 491.713 491.713" id="address"><path d="M384.67 56.113c-39.3-38-91.1-57.8-145.9-56-99.8 3.5-182.2 81-191.8 180.2-1.8 19.1-1 38.2 2.6 57 .1.8.5 3.1 1.4 6.7 3.1 13.5 7.5 26.7 13.3 39.3 20.3 47.8 64.5 121.4 160 200.6 6.3 5.2 13.9 7.8 21.6 7.8s15.3-2.6 21.6-7.8c95.5-79.3 139.7-152.8 160-200.6 5.8-12.6 10.3-25.8 13.3-39.3.9-3.6 1.3-5.9 1.4-6.7 2.3-12.3 3.5-25 3.5-37.5 0-54.7-21.7-105.7-61-143.7zm22 174.8c0 .3-.1.5-.1.8-.1.5-.4 1.9-.9 4.1v.2c-2.5 11.1-6.2 22.1-11 32.5-.1.2-.2.4-.2.5-18.6 43.9-59.4 111.7-148.5 186.1-89.1-74.3-129.9-142.2-148.5-186.1-.1-.2-.2-.4-.2-.5-4.8-10.4-8.5-21.3-11-32.5v-.2c-.5-2.2-.8-3.6-.9-4.1 0-.3-.1-.5-.1-.8-3.2-15.5-4-31.4-2.5-47.2 7.8-81.4 75.4-144.9 157.2-147.7 44.9-1.6 87.4 14.7 119.7 45.9s50 73 50 117.9c0 10.4-1 20.9-3 31.1z"/><path d="M245.87 95.413c-58.6 0-106.4 47.7-106.4 106.4s47.8 106.4 106.4 106.4c9.9 0 18-8.1 18-18s-8.1-18-18-18c-38.8 0-70.4-31.6-70.4-70.4s31.6-70.4 70.4-70.4 70.4 31.6 70.4 70.4c0 16.8-6 33-16.9 45.7-6.5 7.6-5.6 18.9 2 25.4s18.9 5.6 25.4-2c16.5-19.2 25.5-43.8 25.5-69.1 0-58.6-47.7-106.4-106.4-106.4z"/></symbol><symbol viewBox="0 0 512 512" id="arrow-down"><path d="M509.121 125.966a9.821 9.821 0 0 0-13.893 0L256.005 365.194 16.771 125.966a9.821 9.821 0 0 0-13.893 0 9.821 9.821 0 0 0 0 13.893l246.18 246.175a9.819 9.819 0 0 0 13.893 0l246.17-246.175a9.821 9.821 0 0 0 0-13.893z"/></symbol><symbol viewBox="0 0 268.832 268.832" id="arrow-next"><path d="M265.171 125.577l-80-80c-4.881-4.881-12.797-4.881-17.678 0-4.882 4.882-4.882 12.796 0 17.678l58.661 58.661H12.5c-6.903 0-12.5 5.597-12.5 12.5 0 6.902 5.597 12.5 12.5 12.5h213.654l-58.659 58.661c-4.882 4.882-4.882 12.796 0 17.678 2.44 2.439 5.64 3.661 8.839 3.661s6.398-1.222 8.839-3.661l79.998-80c4.882-4.882 4.882-12.796 0-17.678z"/></symbol><symbol viewBox="0 0 476.213 476.213" id="arrow-next-flat"><path d="M345.606 107.5l-21.212 21.213 94.393 94.394H0v30h418.787L324.394 347.5l21.212 21.213 130.607-130.607z"/></symbol><symbol viewBox="0 0 512 512" id="arrow-right"><path d="M386.035 249.056L139.858 2.878c-3.838-3.838-10.055-3.838-13.893 0s-3.838 10.055 0 13.893l239.231 239.231-239.231 239.227a9.821 9.821 0 0 0 0 13.893c1.919 1.919 4.433 2.878 6.946 2.878s5.028-.96 6.946-2.878l246.178-246.173a9.823 9.823 0 0 0 0-13.893z"/></symbol><symbol viewBox="0 0 240.823 240.823" id="arrow-right-bold"><path d="M183.189 111.816L74.892 3.555c-4.752-4.74-12.451-4.74-17.215 0-4.752 4.74-4.752 12.439 0 17.179l99.707 99.671-99.695 99.671c-4.752 4.74-4.752 12.439 0 17.191 4.752 4.74 12.463 4.74 17.215 0l108.297-108.261c4.68-4.691 4.68-12.511-.012-17.19z"/></symbol><symbol viewBox="-233.5 243.5 18.9 18.1" id="arrows-down"><path fill="#E30613" d="M-233 244.5v2.9l9 7.1 9-7.1v-2.9l-9 7.1z"/><path fill="#E30613" d="M-233 250.5v2.9l9 7.1 9-7.1v-2.9l-9 7.1z"/></symbol><symbol viewBox="-233.5 243.5 18.9 18.1" id="arrows-next"><path fill="#E30613" d="M-231.9 243.5h2.9l7.1 9-7.1 9h-2.9l7.1-9z"/><path fill="#E30613" d="M-225.9 243.5h2.9l7.1 9-7.1 9h-2.9l7.1-9z"/></symbol><symbol viewBox="-233.5 243.5 18.9 18.1" id="arrows-prev"><path fill="#E30613" d="M-215.9 243.5h-2.9l-7.1 9 7.1 9h2.9l-7.1-9z"/><path fill="#E30613" d="M-221.9 243.5h-2.9l-7.1 9 7.1 9h2.9l-7.1-9z"/></symbol><symbol viewBox="0 0 294.843 294.843" id="cancel"><path d="M147.421 0C66.133 0 0 66.133 0 147.421s66.133 147.421 147.421 147.421c38.287 0 74.567-14.609 102.159-41.136a6 6 0 1 0-8.316-8.65c-25.345 24.367-58.672 37.786-93.842 37.786C72.75 282.843 12 222.093 12 147.421S72.75 12 147.421 12s135.421 60.75 135.421 135.421c0 16.842-3.052 33.273-9.071 48.835a6 6 0 0 0 11.193 4.329c6.555-16.949 9.879-34.836 9.879-53.165C294.843 66.133 228.71 0 147.421 0z"/><path d="M167.619 160.134a6 6 0 0 0-8.395 8.575l47.236 46.236a5.981 5.981 0 0 0 4.197 1.712 6.001 6.001 0 0 0 4.198-10.288l-47.236-46.235zm-42.441-26.471c1.171 1.171 2.707 1.757 4.243 1.757s3.071-.586 4.243-1.757a6 6 0 0 0 0-8.485L88.428 79.942a6 6 0 0 0-8.485 8.485l45.235 45.236zM214.9 79.942a6 6 0 0 0-8.485 0L79.942 206.415a6 6 0 1 0 8.486 8.485L214.9 88.428a6.001 6.001 0 0 0 0-8.486z"/></symbol><symbol viewBox="174.4 -158.9 844.9 817.5" id="contacts-panel"><style>.st0{fill:#fff}</style><path d="M174.4-158.9h157.3L174.4 41.3zm183.4 0h661.5v466.3L735 658.6H174.4v-584zm661.5 474.2v343.3H741.4z"/></symbol><symbol viewBox="0 0 139.4 44.7" id="dorohovdesign"><path d="M52.2 19.5V8.1H57c3.6 0 6.1 2.1 6.1 5.7 0 3.5-2.6 5.7-6.1 5.7h-4.8zm7.9-5.7c0-1.8-1.1-3.1-3.1-3.1h-1.9v6.2H57c2 0 3.1-1.4 3.1-3.1m4.1 0c0-3.4 2.6-5.9 6.1-5.9 3.5 0 6.1 2.4 6.1 5.9 0 3.5-2.6 5.9-6.1 5.9-3.5 0-6.1-2.4-6.1-5.9m9.2 0c0-1.9-1.2-3.3-3.1-3.3-1.9 0-3.1 1.4-3.1 3.3 0 1.8 1.2 3.3 3.1 3.3 1.9 0 3.1-1.4 3.1-3.3m11 5.7l-1.9-3.8H81v3.8h-2.9V8.1h5.7c2.5 0 3.9 1.7 3.9 3.8 0 2-1.2 3-2.3 3.4l2.3 4.2h-3.3zm.3-7.6c0-.8-.6-1.2-1.4-1.2H81v2.4h2.3c.8 0 1.4-.4 1.4-1.2m4.2 1.9c0-3.4 2.6-5.9 6.1-5.9 3.5 0 6.1 2.4 6.1 5.9 0 3.5-2.6 5.9-6.1 5.9-3.5 0-6.1-2.4-6.1-5.9m9.1 0c0-1.9-1.2-3.3-3.1-3.3-1.9 0-3.1 1.4-3.1 3.3 0 1.8 1.2 3.3 3.1 3.3 1.9 0 3.1-1.4 3.1-3.3m12.4 5.7v-4.6h-4.7v4.6h-3V8.1h3v4.3h4.7V8.1h2.9v11.4zm4.6-5.7c0-3.4 2.6-5.9 6.1-5.9 3.5 0 6.1 2.4 6.1 5.9 0 3.5-2.6 5.9-6.1 5.9-3.5 0-6.1-2.4-6.1-5.9m9.2 0c0-1.9-1.2-3.3-3.1-3.3-1.9 0-3.1 1.4-3.1 3.3 0 1.8 1.2 3.3 3.1 3.3 1.9 0 3.1-1.4 3.1-3.3m7.3 5.7l-4.3-11.4h3.3l2.8 8.2 2.8-8.2h3.3l-4.2 11.4zm-79.3 17V25.1H57c3.6 0 6.1 2.1 6.1 5.7 0 3.5-2.6 5.7-6.1 5.7h-4.8zm7.9-5.7c0-1.8-1.1-3.1-3.1-3.1h-1.9v6.2H57c2 0 3.1-1.4 3.1-3.1m4.7 5.7V25.1h8.3v2.6h-5.3v1.8H73V32h-5.2v1.9h5.3v2.6zm9.6-1.6l1.5-2.2c.8.8 2.1 1.5 3.6 1.5 1 0 1.6-.4 1.6-.9 0-1.5-6.4-.3-6.4-4.7 0-1.9 1.6-3.6 4.5-3.6 1.8 0 3.4.5 4.6 1.6l-1.6 2.1c-1-.8-2.2-1.2-3.3-1.2-.8 0-1.2.3-1.2.8 0 1.4 6.4.4 6.4 4.6 0 2.3-1.7 3.8-4.7 3.8-2.2 0-3.8-.7-5-1.8m11.5-9.8h2.9v11.3h-2.9zm4.7 5.7c0-3.6 2.8-5.9 6.1-5.9 2.5 0 4.1 1.3 4.8 2.8L99.1 29c-.4-.7-1.3-1.4-2.4-1.4-1.9 0-3.2 1.4-3.2 3.3s1.3 3.3 3.2 3.3c.8 0 1.7-.3 2.1-.7v-.9h-2.6V30h5.5v4.5c-1.2 1.3-2.9 2.2-5 2.2-3.4 0-6.1-2.3-6.1-5.9m20.9 5.7l-4.8-6.6v6.6h-2.9V25.1h3l4.6 6.3v-6.3h2.9v11.4zM17.7 0H0v44.7h17.8c15 0 24.6-8.8 24.6-22.4C42.4 8.7 32.7 0 17.7 0m-.4 35.7h-8V9.5h8c9.3 0 15.7 3.7 15.7 12.7.1 7.5-5.8 13.5-15.7 13.5"/><path d="M19.1 17H17v10.6h2c4 0 6.4-2.4 6.4-5.4 0-3.7-2.6-5.2-6.3-5.2"/></symbol><symbol viewBox="0 0 500 500" id="fb"><path d="M482.8 500.1H145.4c-9.4 0-17.1-7.6-17.1-17.1s7.6-17.1 17.1-17.1h320.3V34.3h-30.5c-9.4 0-17.1-7.6-17.1-17.1S425.7.1 435.2.1h47.6c9.4 0 17.1 7.6 17.1 17.1V483c0 9.4-7.6 17.1-17.1 17.1zm-418.1 0H17.1C7.6 500.1 0 492.4 0 483V17.3C0 7.8 7.6.2 17.1.2h345.7c9.4 0 17.1 7.6 17.1 17.1s-7.6 17.1-17.1 17.1H34.2V466h30.5c9.4 0 17.1 7.6 17.1 17.1s-7.7 17-17.1 17z"/><path d="M279.6 184.3v-32.7c0-4.9.2-8.7.7-11.4.5-2.7 1.5-5.3 3.1-7.9 1.6-2.6 4.2-4.4 7.8-5.4 3.6-1 8.4-1.5 14.4-1.5h32.7V60H286c-30.2 0-51.9 7.2-65.1 21.5-13.2 14.3-19.8 35.5-19.8 63.4v39.4H162v65.4h39.1v189.6h78.5V249.6h52.2l6.9-65.4h-59.1z"/></symbol><symbol viewBox="0 0 500 500" id="inst"><path d="M482.8 500.1H145.4c-9.4 0-17.1-7.6-17.1-17.1s7.6-17.1 17.1-17.1h320.3V34.3h-30.5c-9.4 0-17.1-7.6-17.1-17.1S425.7.1 435.2.1h47.6c9.4 0 17.1 7.6 17.1 17.1V483c0 9.4-7.6 17.1-17.1 17.1zm-418.1 0H17.1C7.6 500.1 0 492.4 0 483V17.3C0 7.8 7.6.2 17.1.2h345.7c9.4 0 17.1 7.6 17.1 17.1s-7.6 17.1-17.1 17.1H34.2V466h30.5c9.4 0 17.1 7.6 17.1 17.1s-7.7 17-17.1 17z"/><path d="M136.5 97h227c21.6 0 39.2 16 39.2 39.2v227c0 23.2-17.6 39.2-39.2 39.2h-227c-21.6 0-39.2-16-39.2-39.2v-227c0-23.3 17.7-39.2 39.2-39.2zm183.3 33.9c-7.6 0-13.7 6.2-13.7 13.7v32.9c0 7.6 6.2 13.7 13.7 13.7h34.5c7.6 0 13.7-6.2 13.7-13.7v-32.9c0-7.6-6.2-13.7-13.7-13.7h-34.5zm48.4 95.2h-26.9c2.5 8.3 3.9 17.1 3.9 26.2 0 50.8-42.5 92-94.9 92-52.4 0-94.9-41.2-94.9-92 0-9.1 1.4-17.9 3.9-26.2h-28v129c0 6.7 5.5 12.1 12.1 12.1H356c6.7 0 12.1-5.5 12.1-12.1l.1-129zm-117.9-36.5c-33.9 0-61.3 26.6-61.3 59.4s27.5 59.4 61.3 59.4c33.9 0 61.3-26.6 61.3-59.4s-27.4-59.4-61.3-59.4z"/></symbol><symbol viewBox="-65.2 179.8 261.6 404.7" id="line-bottom"><style>.st0{fill:#e6e6e6}</style><path d="M170.1 179.8L-65.2 584.4h26.3l235.4-404.7h-26.4zM-22.3 584.4l94.7-161 .2-13.6-102.8 174.6h7.9z"/></symbol><symbol viewBox="-3 278.7 208.5 347.2" id="line-top"><style>.st0{fill:#9a9a9a}</style><path d="M179.1 278.7L-3 581.9v44l208.5-347.2h-26.4zm-21.5-.3L25.5 498.1l-.2 16.6 141.9-236.3h-9.6z"/></symbol><symbol viewBox="0 0 200.814 200.814" id="mailto"><path d="M100.407 0C45.043 0 .001 45.042.001 100.406c0 55.366 45.042 100.409 100.406 100.409a7.5 7.5 0 0 0 7.5-7.5 7.5 7.5 0 0 0-7.5-7.5c-47.093 0-85.406-38.314-85.406-85.409C15.001 53.313 53.314 15 100.407 15s85.406 38.313 85.406 85.406v23.23c0 8.672-7.056 15.727-15.729 15.727-8.672 0-15.727-7.055-15.727-15.727v-23.23c0-29.75-24.202-53.953-53.951-53.953-29.75 0-53.953 24.203-53.953 53.953 0 29.752 24.203 53.957 53.953 53.957 16.511 0 31.305-7.463 41.209-19.185 4.572 11.238 15.607 19.185 28.469 19.185 16.943 0 30.729-13.784 30.729-30.727v-23.23C200.813 45.042 155.771 0 100.407 0zm0 139.363c-21.479 0-38.953-17.476-38.953-38.957 0-21.479 17.475-38.953 38.953-38.953s38.951 17.474 38.951 38.953c0 21.481-17.473 38.957-38.951 38.957z"/></symbol><symbol viewBox="0 0 500 500" id="ok"><path d="M482.8 500.1H145.4c-9.4 0-17.1-7.6-17.1-17.1s7.6-17.1 17.1-17.1h320.3V34.3h-30.5c-9.4 0-17.1-7.6-17.1-17.1S425.7.1 435.2.1h47.6c9.4 0 17.1 7.6 17.1 17.1V483c0 9.4-7.6 17.1-17.1 17.1zm-418.1 0H17.1C7.6 500.1 0 492.4 0 483V17.3C0 7.8 7.6.2 17.1.2h345.7c9.4 0 17.1 7.6 17.1 17.1s-7.6 17.1-17.1 17.1H34.2V466h30.5c9.4 0 17.1 7.6 17.1 17.1s-7.7 17-17.1 17z"/><path d="M231.4 327.4c-29.3-3.1-55.8-10.3-78.5-28-2.8-2.2-5.7-4.3-8.3-6.8-9.9-9.5-10.9-20.4-3.1-31.7 6.7-9.6 18-12.2 29.7-6.7 2.3 1.1 4.4 2.4 6.5 3.8 42.2 29 100.2 29.8 142.6 1.3 4.2-3.2 8.7-5.8 13.9-7.2 10.1-2.6 19.5 1.1 25 10 6.2 10.1 6.1 20-1.5 27.8-11.7 12-25.8 20.7-41.5 26.8-14.8 5.7-31 8.6-47.1 10.6 2.4 2.6 3.6 3.9 5.1 5.5 21.8 21.9 43.7 43.7 65.4 65.7 7.4 7.5 8.9 16.8 4.9 25.5-4.5 9.5-14.4 15.8-24.2 15.1-6.2-.4-11-3.5-15.3-7.8-16.5-16.6-33.2-32.8-49.3-49.7-4.7-4.9-6.9-4-11.1.3-16.6 17-33.4 33.8-50.3 50.5-7.6 7.5-16.6 8.8-25.4 4.6-9.4-4.5-15.3-14.1-14.9-23.7.3-6.5 3.5-11.5 8-15.9 21.6-21.5 43.1-43.1 64.6-64.7 1.4-1.6 2.7-3.1 4.8-5.3z"/><path d="M249.2 252.3c-52.4-.2-95.3-43.6-95-96 .3-53 43.3-95.7 96.1-95.6 53 .1 95.5 43.5 95.2 97.1-.1 52.3-43.4 94.7-96.3 94.5zm47.6-95.9c-.1-26-20.8-46.8-46.8-46.8-26.2 0-47.1 21.1-46.9 47.4.2 25.9 21.1 46.5 47.2 46.4 25.9-.1 46.6-20.9 46.5-47z"/></symbol><symbol viewBox="0 0 1792 1792" id="ruble"><path d="M1299 565q0-100-65-162t-171-62H743v448h320q106 0 171-62t65-162zm237 0q0 193-126.5 315T1083 1002H743v118h505q14 0 23 9t9 23v128q0 14-9 23t-23 9H743v192q0 14-9.5 23t-22.5 9H544q-14 0-23-9t-9-23v-192H288q-14 0-23-9t-9-23v-128q0-14 9-23t23-9h224v-118H288q-14 0-23-9t-9-23V821q0-13 9-22.5t23-9.5h224V160q0-14 9-23t23-9h539q200 0 326.5 122T1536 565z"/></symbol><symbol viewBox="0 0 211.621 211.621" id="tel"><path d="M180.948 27.722C163.07 9.844 139.299-.001 114.017 0a7.5 7.5 0 0 0 0 15c21.276-.001 41.279 8.284 56.324 23.329 15.046 15.045 23.331 35.049 23.33 56.326a7.5 7.5 0 1 0 15 .001c.001-25.285-9.844-49.056-27.723-66.934z"/><path d="M150.096 94.656c0 4.142 3.358 7.5 7.501 7.499a7.5 7.5 0 0 0 7.499-7.5c-.002-28.16-22.916-51.073-51.078-51.077h-.001a7.5 7.5 0 0 0-.001 15c19.893.003 36.078 16.187 36.08 36.078zm-16.596 38.24c-11.432-.592-17.256 7.91-20.049 11.994a7.5 7.5 0 1 0 12.381 8.469c3.3-4.825 4.795-5.584 6.823-5.488 6.491.763 32.056 19.497 34.616 25.355.642 1.725.618 3.416-.071 5.473-2.684 7.966-7.127 13.564-12.851 16.188-5.438 2.493-12.105 2.267-19.276-.651-26.777-10.914-50.171-26.145-69.531-45.271l-.023-.023c-19.086-19.341-34.289-42.705-45.185-69.441-2.919-7.177-3.145-13.845-.652-19.282 2.624-5.724 8.222-10.167 16.181-12.848 2.064-.692 3.752-.714 5.461-.078 5.879 2.569 24.612 28.133 25.368 34.551.108 2.104-.657 3.598-5.478 6.892a7.5 7.5 0 1 0 8.461 12.385c4.086-2.79 12.586-8.598 11.996-20.069-.65-11.982-23.958-43.713-35.095-47.808-4.953-1.846-10.163-1.878-15.491-.09-11.988 4.037-20.646 11.235-25.038 20.815-4.26 9.294-4.125 20.077.395 31.189 11.661 28.612 27.976 53.647 48.491 74.412.05.051.101.101.153.15 20.75 20.477 45.756 36.762 74.33 48.409 5.722 2.327 11.357 3.492 16.746 3.492 5.074 0 9.932-1.032 14.438-3.098 9.581-4.391 16.778-13.048 20.818-25.044 1.784-5.318 1.755-10.526-.077-15.456-4.109-11.167-35.84-34.475-47.841-35.127z"/></symbol><symbol viewBox="0 0 500 500" id="tw"><path d="M482.8 500.1H145.4c-9.4 0-17.1-7.6-17.1-17.1s7.6-17.1 17.1-17.1h320.3V34.3h-30.5c-9.4 0-17.1-7.6-17.1-17.1S425.7.1 435.2.1h47.6c9.4 0 17.1 7.6 17.1 17.1V483c0 9.4-7.6 17.1-17.1 17.1zm-418.1 0H17.1C7.6 500.1 0 492.4 0 483V17.3C0 7.8 7.6.2 17.1.2h345.7c9.4 0 17.1 7.6 17.1 17.1s-7.6 17.1-17.1 17.1H34.2V466h30.5c9.4 0 17.1 7.6 17.1 17.1s-7.7 17-17.1 17z"/><path d="M415.8 148.9c-12 5.3-24.8 8.9-38.3 10.5 13.8-8.2 24.3-21.3 29.3-36.9-12.9 7.6-27.2 13.2-42.4 16.2-12.2-13-29.5-21.1-48.7-21.1-36.8 0-66.7 29.8-66.7 66.6 0 5.2.6 10.3 1.7 15.2-55.4-2.8-104.5-29.3-137.4-69.6-5.7 9.8-9 21.3-9 33.5 0 23.1 11.8 43.5 29.6 55.5-10.9-.4-21.2-3.4-30.2-8.4v.8c0 32.3 23 59.2 53.5 65.4-5.6 1.5-11.5 2.3-17.6 2.3-4.3 0-8.5-.4-12.5-1.2 8.5 26.5 33.1 45.8 62.3 46.3-22.8 17.9-51.6 28.5-82.8 28.5-5.4 0-10.7-.3-15.9-.9 29.5 18.9 64.5 30 102.2 30 122.6 0 189.6-101.6 189.6-189.6l-.2-8.6c13.3-9.4 24.6-21.2 33.5-34.5z"/></symbol><symbol viewBox="0 0 500 500" id="vk"><path d="M482.8 500.1H145.4c-9.4 0-17.1-7.6-17.1-17.1s7.6-17.1 17.1-17.1h320.3V34.3h-30.5c-9.4 0-17.1-7.6-17.1-17.1S425.7.1 435.2.1h47.6c9.4 0 17.1 7.6 17.1 17.1V483c0 9.4-7.6 17.1-17.1 17.1zm-418.1 0H17.1C7.6 500.1 0 492.4 0 483V17.3C0 7.8 7.6.2 17.1.2h345.7c9.4 0 17.1 7.6 17.1 17.1s-7.6 17.1-17.1 17.1H34.2V466h30.5c9.4 0 17.1 7.6 17.1 17.1s-7.7 17-17.1 17z"/><path d="M420.9 332.5c-.4-.9-.8-1.7-1.2-2.3-6.1-11-17.8-24.6-35.1-40.6l-.4-.4-.2-.2-.2-.2h-.2c-7.8-7.5-12.8-12.5-14.9-15.1-3.8-4.9-4.7-9.9-2.6-14.9 1.5-3.8 7-11.8 16.5-24.1 5-6.5 9-11.7 11.9-15.6 21.2-28.2 30.4-46.2 27.6-54l-1.1-1.8c-.7-1.1-2.6-2.1-5.7-3-3.1-.9-7-1.1-11.8-.5l-52.9.4c-.9-.3-2.1-.3-3.7.1l-2.4.6-.9.5-.7.6c-.6.4-1.3 1-2 1.9-.7.9-1.3 2-1.8 3.2-5.8 14.8-12.3 28.6-19.7 41.3-4.5 7.6-8.7 14.2-12.5 19.7-3.8 5.6-7 9.7-9.5 12.3-2.6 2.6-4.9 4.7-7 6.3-2.1 1.6-3.7 2.3-4.8 2-1.1-.2-2.1-.5-3.1-.7-1.7-1.1-3.1-2.6-4.1-4.5-1-1.9-1.7-4.3-2.1-7.2-.4-2.9-.6-5.4-.6-7.4-.1-2.1 0-5 .1-8.8.1-3.8.2-6.4.2-7.7 0-4.7.1-9.7.3-15.2.2-5.4.3-9.8.5-12.9.1-3.2.2-6.6.2-10.1 0-3.6-.2-6.3-.6-8.4-.4-2-1.1-4-1.9-5.9-.9-1.9-2.1-3.4-3.8-4.4-1.7-1-3.7-1.9-6.2-2.5-6.5-1.5-14.8-2.3-24.8-2.4-22.8-.2-37.4 1.2-43.9 4.4-2.6 1.3-4.9 3.2-7 5.5-2.2 2.7-2.5 4.2-.9 4.4 7.3 1.1 12.6 3.7 15.6 7.9l1.1 2.2c.9 1.6 1.7 4.4 2.6 8.5.9 4 1.4 8.5 1.7 13.4.6 8.9.6 16.6 0 23-.6 6.4-1.2 11.3-1.7 14.9s-1.4 6.4-2.5 8.6c-1.1 2.2-1.8 3.6-2.2 4-.4.5-.7.8-.9.9-1.6.6-3.2.9-5 .9-1.7 0-3.8-.9-6.2-2.6-2.4-1.7-5-4.1-7.6-7.1-2.6-3-5.6-7.2-8.9-12.6-3.3-5.4-6.7-11.8-10.3-19.1l-2.9-5.3c-1.8-3.4-4.3-8.4-7.5-15s-6-12.9-8.5-19c-1-2.6-2.4-4.5-4.4-5.9l-.9-.6c-.6-.5-1.6-1-2.9-1.6-1.3-.6-2.8-.9-4.2-1.2l-50.5.8c-5.1 0-8.6 1.2-10.5 3.5l-.7 1.1c-.4.6-.6 1.6-.6 2.9 0 1.3.4 3 1.1 5 7.3 17.3 15.3 33.9 24 50s16.1 29 22.5 38.8c6.4 9.8 12.9 19 19.5 27.7s11 14.3 13.1 16.7c2.1 2.5 3.8 4.3 5.1 5.5l4.6 4.4c2.9 2.9 7.3 6.5 12.9 10.6 5.7 4.1 12 8.1 18.9 12.1 6.9 4 15 7.2 24.2 9.7 9.2 2.5 18.1 3.5 26.8 3h21.1c4.3-.4 7.5-1.7 9.7-4l.7-.9c.5-.7 1-1.9 1.4-3.4.4-1.5.6-3.2.6-5.1-.1-5.3.3-10 1.2-14.2.9-4.2 2-7.4 3.1-9.6 1.2-2.1 2.5-4 3.9-5.4 1.5-1.5 2.5-2.4 3.1-2.7.6-.3 1.1-.5 1.5-.6 2.9-1 6.4 0 10.4 2.8 4 2.9 7.7 6.4 11.2 10.7 3.5 4.2 7.7 9 12.6 14.2 4.9 5.3 9.2 9.2 12.9 11.8l3.7 2.2c2.5 1.5 5.6 2.8 9.6 4 3.9 1.2 7.3 1.5 10.3.9l47-.7c4.7 0 8.3-.8 10.8-2.3 2.6-1.5 4.1-3.2 4.6-5.1.5-1.8.5-3.9.1-6.2-.4-2.3-.8-3.9-1.3-4.9z"/></symbol></svg>