<svg version="1" xmlns="http://www.w3.org/2000/svg" width="348" height="348" viewBox="0 0 261.000000 261.000000"><path d="M24.2 3.1C13 5.4 6.5 16.2 1.4 41 1 42.9.5 92.5.3 151.2c-.3 87-.2 106.8.9 106.9 1.7.1 33.1.1 33.9 0 .3-.1.6-22 .6-48.8v-48.6l5.4-5c4.6-4.3 10.4-9.6 30.1-28 1.7-1.5 3.2-2.7 3.3-2.7.2 0 5.4 8.9 11.6 19.7l11.3 19.8.2 20.3c.1 11.2.5 24.5.8 29.5 1.3 21.9 7.5 40.5 14.4 43.6 1.5.8 26.2 1.1 75.2 1.1h73V2.3l-72.7-.1c-43.1 0-73.8.3-75.3.9-4.7 1.8-9.6 12.1-12.4 25.9-2 10.1-2.7 19.7-2.8 37 0 16.2.6 14.3-10.7 35-2.3 4.1-6 11-8.3 15.4l-4.2 7.9-19.5-20.1-19.6-20 .2-10.6c.2-12 1.2-16.3 4.9-19.7 2.5-2.3 2.9-2.4 23.7-2.5 11.7-.1 21.5-.2 21.9-.3.4 0 .7-11 .7-24.4V2.3l-29.7.1c-16.3 0-31.2.3-33 .7z"/></svg>