<?xml version="1.0" encoding="utf-8"?>
<!-- Generator: Adobe Illustrator 19.0.0, SVG Export Plug-In . SVG Version: 6.00 Build 0)  -->
<svg version="1.1" id="Слой_1" xmlns="http://www.w3.org/2000/svg" xmlns:xlink="http://www.w3.org/1999/xlink" x="0px" y="0px"
	 viewBox="0 0 124.7 124.7" enable-background="new 0 0 124.7 124.7" xml:space="preserve">
<g id="XMLID_26_">
	<line id="XMLID_14_" x1="4.7" y1="89.1" x2="119.7" y2="89.1"/>
	<path id="XMLID_25_" d="M119.7,91.6H4.7c-1.4,0-2.5-1.1-2.5-2.5s1.1-2.5,2.5-2.5h115c1.4,0,2.5,1.1,2.5,2.5S121.1,91.6,119.7,91.6z
		"/>
</g>
<g id="XMLID_24_">
	<line id="XMLID_15_" x1="62.2" y1="90.6" x2="62.2" y2="110.4"/>
	<path id="XMLID_23_" d="M62.2,112.9c-1.4,0-2.5-1.1-2.5-2.5V90.6c0-1.4,1.1-2.5,2.5-2.5s2.5,1.1,2.5,2.5v19.8
		C64.7,111.8,63.6,112.9,62.2,112.9z"/>
</g>
<g id="XMLID_22_">
	<line id="XMLID_2_" x1="42.7" y1="110.4" x2="82.7" y2="110.4"/>
	<path id="XMLID_16_" d="M82.7,112.9h-40c-1.4,0-2.5-1.1-2.5-2.5s1.1-2.5,2.5-2.5h40c1.4,0,2.5,1.1,2.5,2.5S84.1,112.9,82.7,112.9z"
		/>
</g>
<path id="XMLID_17_" d="M21.5,82.6c-0.8,0-1.5-0.7-1.5-1.5V54.3c0-0.8,0.7-1.5,1.5-1.5h82.9c0.8,0,1.5,0.7,1.5,1.5v26.2
	c0,0.8-0.7,1.5-1.5,1.5s-1.5-0.7-1.5-1.5V55.8H23v25.2C23,81.9,22.4,82.6,21.5,82.6z"/>
<path id="XMLID_18_" d="M89,49.4c-0.8,0-1.5-0.7-1.5-1.5V33.6H36.7v14.4c0,0.8-0.7,1.5-1.5,1.5s-1.5-0.7-1.5-1.5V32.1
	c0-0.8,0.7-1.5,1.5-1.5H89c0.8,0,1.5,0.7,1.5,1.5v15.9C90.5,48.8,89.9,49.4,89,49.4z"/>
<path id="XMLID_12_" d="M80.3,29.4c-0.8,0-1.5-0.7-1.5-1.5v-3.3H45.7v3.3c0,0.8-0.7,1.5-1.5,1.5s-1.5-0.7-1.5-1.5v-4.8
	c0-0.8,0.7-1.5,1.5-1.5h36.1c0.8,0,1.5,0.7,1.5,1.5v4.8C81.8,28.8,81.1,29.4,80.3,29.4z"/>
<path id="XMLID_19_" d="M62.6,19.8c-3.9,0-7.1-3.2-7.1-7.2s3.2-7.2,7.1-7.2s7.1,3.2,7.1,7.2S66.5,19.8,62.6,19.8z M62.6,10.4
	c-1.1,0-2.1,1-2.1,2.2s0.9,2.2,2.1,2.2s2.1-1,2.1-2.2S63.7,10.4,62.6,10.4z"/>
</svg>
