<?xml version="1.0" encoding="utf-8"?>
<!-- Generator: Adobe Illustrator 19.0.0, SVG Export Plug-In . SVG Version: 6.00 Build 0)  -->
<svg version="1.1" id="Слой_1" xmlns="http://www.w3.org/2000/svg" xmlns:xlink="http://www.w3.org/1999/xlink" x="0px" y="0px"
	 viewBox="0 0 124.7 124.7" enable-background="new 0 0 124.7 124.7" xml:space="preserve">
<path id="XMLID_3_" d="M26.2,111.2c-1.4,0-2.5-1.1-2.5-2.5V11.1c0-1.4,1.1-2.5,2.5-2.5h17.5c1.4,0,2.5,1.1,2.5,2.5s-1.1,2.5-2.5,2.5
	h-15v95.2C28.7,110.1,27.6,111.2,26.2,111.2z"/>
<path id="XMLID_4_" d="M97.7,111.2c-1.4,0-2.5-1.1-2.5-2.5V13.6h-15c-1.4,0-2.5-1.1-2.5-2.5s1.1-2.5,2.5-2.5h17.5
	c1.4,0,2.5,1.1,2.5,2.5v97.7C100.2,110.1,99.1,111.2,97.7,111.2z"/>
<path id="XMLID_6_" d="M78.9,17.4H45.7c-0.8,0-1.5-0.7-1.5-1.5V5.6c0-0.8,0.7-1.5,1.5-1.5h33.2c0.8,0,1.5,0.7,1.5,1.5v10.3
	C80.4,16.7,79.7,17.4,78.9,17.4z M47.2,14.4h30.2V7.1H47.2V14.4z"/>
<path id="XMLID_7_" d="M62.3,111.1c-0.8,0-1.5-0.7-1.5-1.5v-45c0-0.8,0.7-1.5,1.5-1.5s1.5,0.7,1.5,1.5v45
	C63.8,110.4,63.1,111.1,62.3,111.1z"/>
<path id="XMLID_8_" d="M62.4,56.2c-0.8,0-1.5-0.7-1.5-1.5v-38c0-0.8,0.7-1.5,1.5-1.5s1.5,0.7,1.5,1.5v38
	C63.9,55.6,63.2,56.2,62.4,56.2z"/>
<path id="XMLID_5_" d="M19.2,55.5h-8.7c-0.5,0-1-0.3-1.3-0.8s-0.3-1,0-1.5l4.3-7.3c0.3-0.5,0.8-0.7,1.3-0.7s1,0.3,1.3,0.7l4.3,7.3
	c0.3,0.5,0.3,1,0,1.5S19.8,55.5,19.2,55.5z M13.2,52.5h3.4l-1.7-2.9L13.2,52.5z"/>
<path id="XMLID_21_" d="M14.9,69.9c-0.5,0-1-0.3-1.3-0.7l-4.3-7.3c-0.3-0.5-0.3-1,0-1.5s0.8-0.8,1.3-0.8h8.7c0.5,0,1,0.3,1.3,0.8
	s0.3,1,0,1.5l-4.3,7.3C15.9,69.6,15.4,69.9,14.9,69.9z M13.2,62.6l1.7,2.9l1.7-2.9H13.2z"/>
<path id="XMLID_17_" d="M118.5,112.1H4c-1.4,0-2.5-1.1-2.5-2.5s1.1-2.5,2.5-2.5h114.5c1.4,0,2.5,1.1,2.5,2.5
	S119.9,112.1,118.5,112.1z"/>
</svg>
