<?xml version="1.0" encoding="utf-8"?>
<!-- Generator: Adobe Illustrator 19.0.0, SVG Export Plug-In . SVG Version: 6.00 Build 0)  -->
<svg version="1.1" id="Слой_1" xmlns="http://www.w3.org/2000/svg" xmlns:xlink="http://www.w3.org/1999/xlink" x="0px" y="0px"
	 viewBox="0 0 124.7 124.7" enable-background="new 0 0 124.7 124.7" xml:space="preserve">
<path id="XMLID_4_" d="M118,79.8H75.9c-1.4,0-2.5-1.1-2.5-2.5s1.1-2.5,2.5-2.5h39.6V13.6H7.5v61.2h37.1c1.4,0,2.5,1.1,2.5,2.5
	s-1.1,2.5-2.5,2.5H5c-1.4,0-2.5-1.1-2.5-2.5V11.1c0-1.4,1.1-2.5,2.5-2.5h113c1.4,0,2.5,1.1,2.5,2.5v66.3
	C120.5,78.7,119.4,79.8,118,79.8z"/>
<path id="XMLID_5_" d="M116.8,71.7H6.5C5.7,71.7,5,71,5,70.2s0.7-1.5,1.5-1.5h110.3c0.8,0,1.5,0.7,1.5,1.5S117.6,71.7,116.8,71.7z"
	/>
<path id="XMLID_2_" d="M45.9,63.8H6.5c-0.8,0-1.5-0.7-1.5-1.5s0.7-1.5,1.5-1.5h39.4c0.8,0,1.5,0.7,1.5,1.5S46.7,63.8,45.9,63.8z"/>
<path id="XMLID_7_" d="M116.8,63.9H74.5c-0.8,0-1.5-0.7-1.5-1.5s0.7-1.5,1.5-1.5h42.3c0.8,0,1.5,0.7,1.5,1.5S117.6,63.9,116.8,63.9z
	"/>
<path id="XMLID_8_" d="M67.3,104.3H53.2c-0.8,0-1.5-0.7-1.5-1.5V71c0-0.8,0.7-1.5,1.5-1.5s1.5,0.7,1.5,1.5v30.3h11V71.7
	c0-0.8,0.7-1.5,1.5-1.5s1.5,0.7,1.5,1.5v31.1C68.8,103.7,68.1,104.3,67.3,104.3z"/>
<path id="XMLID_6_" d="M88.6,113.6H33.1c-0.8,0-1.6-0.4-2.1-1.1c-0.5-0.7-0.6-1.6-0.2-2.3L38,92.5c0.4-0.9,1.3-1.6,2.3-1.6h4.4
	c1.4,0,2.5,1.1,2.5,2.5S46.1,96,44.7,96H42l-5.1,12.6h47.6L77.7,96h-2.1c-1.4,0-2.5-1.1-2.5-2.5s1.1-2.5,2.5-2.5h3.6
	c0.9,0,1.8,0.5,2.2,1.3l9.4,17.6c0.4,0.8,0.4,1.7-0.1,2.5C90.3,113.1,89.5,113.6,88.6,113.6z"/>
</svg>
