<?xml version="1.0" encoding="utf-8"?>
<!-- Generator: Adobe Illustrator 19.0.0, SVG Export Plug-In . SVG Version: 6.00 Build 0)  -->
<svg version="1.1" id="Слой_1" xmlns="http://www.w3.org/2000/svg" xmlns:xlink="http://www.w3.org/1999/xlink" x="0px" y="0px"
	 viewBox="0 0 124.7 124.7" enable-background="new 0 0 124.7 124.7" xml:space="preserve">
<path id="XMLID_2_"  d="M73,81.6c-0.1,0-0.2,0-0.3,0l-15-3c-0.8-0.2-1.3-0.9-1.2-1.7l3-17c0.1-0.5,0.5-1,1-1.2l57-20
	c0.7-0.2,1.4,0,1.8,0.7c0.4,0.6,0.2,1.4-0.3,1.9l-45,40C73.7,81.4,73.4,81.6,73,81.6z M59.8,75.9l12.8,2.6L111.3,44l-49,17.2
	L59.8,75.9z"/>
<path id="XMLID_3_"  d="M80.3,107.7c-0.1,0-0.1,0-0.2,0c-0.6-0.1-1.1-0.5-1.3-1.1l-7.3-26.1c-0.2-0.6,0-1.1,0.4-1.5
	l45-40c0.6-0.5,1.4-0.5,1.9,0c0.6,0.5,0.7,1.3,0.4,1.9l-37.7,66.1C81.4,107.4,80.9,107.7,80.3,107.7z M74.7,80.6l6.1,21.8l31.4-55.1
	L74.7,80.6z"/>
<path id="XMLID_4_"  d="M61,61.6c-0.4,0-0.7-0.1-1-0.4l-20-17c-0.5-0.4-0.6-1-0.4-1.6c0.2-0.6,0.7-1,1.4-1l77-3
	c0.7,0,1.4,0.5,1.5,1.2c0.1,0.7-0.3,1.5-1,1.7l-57,20C61.4,61.5,61.2,61.6,61,61.6z M44.9,44.4l16.4,14l46.8-16.4L44.9,44.4z"/>
<path id="XMLID_116_"  d="M104.2,118.6H6c-1.4,0-2.5-1.1-2.5-2.5V43.2c0-0.7,0.3-1.3,0.7-1.8l27.5-27
	c0.5-0.5,1.1-0.7,1.7-0.7l70.7-0.1c0,0,0,0,0,0c0.7,0,1.3,0.3,1.8,0.7c0.5,0.5,0.7,1.1,0.7,1.8v16.2c0,1.4-1.1,2.5-2.5,2.5
	s-2.5-1.1-2.5-2.5V18.6l-67.1,0.1l-26,25.6v69.3h93.2V82.8c0-1.4,1.1-2.5,2.5-2.5s2.5,1.1,2.5,2.5v33.3
	C106.7,117.4,105.6,118.6,104.2,118.6z"/>
<path id="XMLID_117_"  d="M33.5,45.5H6.6c-0.8,0-1.5-0.7-1.5-1.5s0.7-1.5,1.5-1.5H32V17.1c0-0.8,0.7-1.5,1.5-1.5
	s1.5,0.7,1.5,1.5V44C35,44.8,34.4,45.5,33.5,45.5z"/>
</svg>
