<?xml version="1.0" encoding="utf-8"?>
<!-- Generator: Adobe Illustrator 19.0.0, SVG Export Plug-In . SVG Version: 6.00 Build 0)  -->
<svg version="1.1" id="Слой_1" xmlns="http://www.w3.org/2000/svg" xmlns:xlink="http://www.w3.org/1999/xlink" x="0px" y="0px"
	 viewBox="0 0 124.7 124.7" enable-background="new 0 0 124.7 124.7" xml:space="preserve">
<path id="XMLID_3_" d="M119.5,89.4H7.7c-1.4,0-2.5-1.1-2.5-2.5V7.4c0-1.4,1.1-2.5,2.5-2.5h111.8c1.4,0,2.5,1.1,2.5,2.5v79.5
	C122,88.3,120.9,89.4,119.5,89.4z M10.2,84.4H117V9.9H10.2V84.4z"/>
<path id="XMLID_5_" d="M90.8,110.4H34.5c-1.4,0-2.5-1.1-2.5-2.5v-9c0-1.4,1.1-2.5,2.5-2.5h56.3c1.4,0,2.5,1.1,2.5,2.5v9
	C93.3,109.3,92.2,110.4,90.8,110.4z M37,105.4h51.3v-4H37V105.4z"/>
<path id="XMLID_4_" d="M57.4,81.8H9.5c-0.8,0-1.5-0.7-1.5-1.5s0.7-1.5,1.5-1.5h47.9c0.8,0,1.5,0.7,1.5,1.5S58.2,81.8,57.4,81.8z"/>
<path id="XMLID_7_" d="M117.7,81.8H69.8c-0.8,0-1.5-0.7-1.5-1.5s0.7-1.5,1.5-1.5h47.9c0.8,0,1.5,0.7,1.5,1.5S118.6,81.8,117.7,81.8z
	"/>
<path id="XMLID_22_" d="M29.8,62.8c-0.4,0-0.8-0.2-1.1-0.5c-0.5-0.6-0.5-1.6,0.2-2.1l26.6-22.5c0.6-0.5,1.4-0.5,2,0l17.3,15.7
	l18.7-18.7c0.6-0.6,1.5-0.6,2.1,0c0.6,0.6,0.6,1.5,0,2.1L75.8,56.5c-0.6,0.6-1.5,0.6-2.1,0.1L56.4,40.8L30.7,62.5
	C30.5,62.7,30.1,62.8,29.8,62.8z"/>
<circle id="XMLID_6_" cx="29.4" cy="62.2" r="4.5"/>
<circle id="XMLID_8_" cx="56.3" cy="38.8" r="4.5"/>
<circle id="XMLID_17_" cx="75" cy="55.3" r="4.5"/>
<circle id="XMLID_21_" cx="94.5" cy="35.8" r="4.5"/>
</svg>
