<?xml version="1.0" encoding="utf-8"?>
<!-- Generator: Adobe Illustrator 19.0.0, SVG Export Plug-In . SVG Version: 6.00 Build 0)  -->
<svg version="1.1" id="Слой_1" xmlns="http://www.w3.org/2000/svg" xmlns:xlink="http://www.w3.org/1999/xlink" x="0px" y="0px"
	 viewBox="0 0 124.7 124.7" enable-background="new 0 0 124.7 124.7" xml:space="preserve">
<path id="XMLID_13_" d="M119.7,27.2c-1.4,0-2.5-1.1-2.5-2.5v-11H98.9v8.2c0,1.4-1.1,2.5-2.5,2.5h-66c-1.4,0-2.5-1.1-2.5-2.5v-8.2
	h-18v11c0,1.4-1.1,2.5-2.5,2.5s-2.5-1.1-2.5-2.5V11.2c0-1.4,1.1-2.5,2.5-2.5h23c1.4,0,2.5,1.1,2.5,2.5v8.2h61v-8.2
	c0-1.4,1.1-2.5,2.5-2.5h23.3c1.4,0,2.5,1.1,2.5,2.5v13.5C122.2,26.1,121.1,27.2,119.7,27.2z"/>
<path id="XMLID_15_" d="M119.7,112.2H96.4c-1.4,0-2.5-1.1-2.5-2.5v-8.2h-61v8.2c0,1.4-1.1,2.5-2.5,2.5h-23c-1.4,0-2.5-1.1-2.5-2.5
	V96.2c0-1.4,1.1-2.5,2.5-2.5s2.5,1.1,2.5,2.5v11h18v-8.2c0-1.4,1.1-2.5,2.5-2.5h66c1.4,0,2.5,1.1,2.5,2.5v8.2h18.3v-11
	c0-1.4,1.1-2.5,2.5-2.5s2.5,1.1,2.5,2.5v13.5C122.2,111.1,121.1,112.2,119.7,112.2z"/>
<path id="XMLID_16_" d="M7.4,47.9c-1.4,0-2.5-1.1-2.5-2.5V35.1c0-1.4,1.1-2.5,2.5-2.5s2.5,1.1,2.5,2.5v10.3
	C9.9,46.8,8.7,47.9,7.4,47.9z"/>
<path id="XMLID_17_" d="M7.4,67.9c-1.4,0-2.5-1.1-2.5-2.5V55.1c0-1.4,1.1-2.5,2.5-2.5s2.5,1.1,2.5,2.5v10.3
	C9.9,66.8,8.7,67.9,7.4,67.9z"/>
<path id="XMLID_20_" d="M7.4,88.9c-1.4,0-2.5-1.1-2.5-2.5V76.1c0-1.4,1.1-2.5,2.5-2.5s2.5,1.1,2.5,2.5v10.3
	C9.9,87.8,8.7,88.9,7.4,88.9z"/>
<path id="XMLID_19_" d="M119.4,47.9c-1.4,0-2.5-1.1-2.5-2.5V35.1c0-1.4,1.1-2.5,2.5-2.5s2.5,1.1,2.5,2.5v10.3
	C121.9,46.8,120.7,47.9,119.4,47.9z"/>
<path id="XMLID_18_" d="M119.4,67.9c-1.4,0-2.5-1.1-2.5-2.5V55.1c0-1.4,1.1-2.5,2.5-2.5s2.5,1.1,2.5,2.5v10.3
	C121.9,66.8,120.7,67.9,119.4,67.9z"/>
<path id="XMLID_14_" d="M119.4,88.9c-1.4,0-2.5-1.1-2.5-2.5V76.1c0-1.4,1.1-2.5,2.5-2.5s2.5,1.1,2.5,2.5v10.3
	C121.9,87.8,120.7,88.9,119.4,88.9z"/>
<path id="XMLID_22_" d="M96,89.9H30.5c-0.8,0-1.5-0.7-1.5-1.5V35.1c0-0.8,0.7-1.5,1.5-1.5H96c0.8,0,1.5,0.7,1.5,1.5v53.3
	C97.5,89.2,96.9,89.9,96,89.9z M32,86.9h62.5V36.6H32V86.9z"/>
<path id="XMLID_21_" d="M53,77.6c-0.3,0-0.5-0.1-0.8-0.2c-0.5-0.3-0.7-0.8-0.7-1.3V49.2c0-0.5,0.3-1,0.7-1.3c0.5-0.3,1-0.3,1.5,0
	l24.3,13.4c0.5,0.3,0.8,0.8,0.8,1.3s-0.3,1-0.8,1.3L53.8,77.4C53.5,77.5,53.3,77.6,53,77.6z M54.5,51.8v21.8l19.7-10.9L54.5,51.8z"
	/>
</svg>
