<?xml version="1.0" encoding="utf-8"?>
<!-- Generator: Adobe Illustrator 19.0.0, SVG Export Plug-In . SVG Version: 6.00 Build 0)  -->
<svg version="1.1" id="Слой_1" xmlns="http://www.w3.org/2000/svg" xmlns:xlink="http://www.w3.org/1999/xlink" x="0px" y="0px"
	 viewBox="0 0 500 500" enable-background="new 0 0 500 500" xml:space="preserve">
<path id="XMLID_3_" d="M482.8,500.1H145.4c-9.4,0-17.1-7.6-17.1-17.1s7.6-17.1,17.1-17.1h320.3V34.3h-30.5
	c-9.4,0-17.1-7.6-17.1-17.1s7.6-17.1,17.1-17.1h47.6c9.4,0,17.1,7.6,17.1,17.1V483C499.9,492.4,492.3,500.1,482.8,500.1z"/>
<path id="XMLID_42_" d="M64.7,500.1H17.1C7.6,500.1,0,492.4,0,483V17.3C0,7.8,7.6,0.2,17.1,0.2h345.7c9.4,0,17.1,7.6,17.1,17.1
	s-7.6,17.1-17.1,17.1H34.2v431.6h30.5c9.4,0,17.1,7.6,17.1,17.1S74.1,500.1,64.7,500.1z"/>
<g id="XMLID_2_">
	<path id="XMLID_4_" d="M279.6,184.3v-32.7c0-4.9,0.2-8.7,0.7-11.4c0.5-2.7,1.5-5.3,3.1-7.9c1.6-2.6,4.2-4.4,7.8-5.4
		c3.6-1,8.4-1.5,14.4-1.5h32.7V60H286c-30.2,0-51.9,7.2-65.1,21.5c-13.2,14.3-19.8,35.5-19.8,63.4v39.4H162v65.4h39.1v189.6h78.5
		V249.6h52.2l6.9-65.4H279.6z"/>
</g>
</svg>
