<?xml version="1.0" encoding="utf-8"?>
<!-- Generator: Adobe Illustrator 19.0.0, SVG Export Plug-In . SVG Version: 6.00 Build 0)  -->
<svg version="1.1" id="Слой_1" xmlns="http://www.w3.org/2000/svg" xmlns:xlink="http://www.w3.org/1999/xlink" x="0px" y="0px"
	 viewBox="0 0 500 500" enable-background="new 0 0 500 500" xml:space="preserve">
<path id="XMLID_3_" d="M482.8,500.1H145.4c-9.4,0-17.1-7.6-17.1-17.1s7.6-17.1,17.1-17.1h320.3V34.3h-30.5
	c-9.4,0-17.1-7.6-17.1-17.1s7.6-17.1,17.1-17.1h47.6c9.4,0,17.1,7.6,17.1,17.1V483C499.9,492.4,492.3,500.1,482.8,500.1z"/>
<path id="XMLID_42_" d="M64.7,500.1H17.1C7.6,500.1,0,492.4,0,483V17.3C0,7.8,7.6,0.2,17.1,0.2h345.7c9.4,0,17.1,7.6,17.1,17.1
	s-7.6,17.1-17.1,17.1H34.2v431.6h30.5c9.4,0,17.1,7.6,17.1,17.1S74.1,500.1,64.7,500.1z"/>
<g id="XMLID_9_">
	<path id="XMLID_10_" d="M136.5,97h227c21.6,0,39.2,16,39.2,39.2v227c0,23.2-17.6,39.2-39.2,39.2h-227
		c-21.6,0-39.2-16-39.2-39.2v-227C97.3,112.9,115,97,136.5,97L136.5,97z M319.8,130.9c-7.6,0-13.7,6.2-13.7,13.7v32.9
		c0,7.6,6.2,13.7,13.7,13.7h34.5c7.6,0,13.7-6.2,13.7-13.7v-32.9c0-7.6-6.2-13.7-13.7-13.7H319.8L319.8,130.9z M368.2,226.1h-26.9
		c2.5,8.3,3.9,17.1,3.9,26.2c0,50.8-42.5,92-94.9,92c-52.4,0-94.9-41.2-94.9-92c0-9.1,1.4-17.9,3.9-26.2h-28v129
		c0,6.7,5.5,12.1,12.1,12.1H356c6.7,0,12.1-5.5,12.1-12.1L368.2,226.1L368.2,226.1z M250.3,189.6c-33.9,0-61.3,26.6-61.3,59.4
		s27.5,59.4,61.3,59.4c33.9,0,61.3-26.6,61.3-59.4S284.2,189.6,250.3,189.6z"/>
</g>
</svg>
