<?xml version="1.0" encoding="utf-8"?>
<!-- Generator: Adobe Illustrator 19.0.0, SVG Export Plug-In . SVG Version: 6.00 Build 0)  -->
<svg version="1.1" id="Слой_1" xmlns="http://www.w3.org/2000/svg" xmlns:xlink="http://www.w3.org/1999/xlink" x="0px" y="0px"
	 viewBox="0 0 339.3 88.9" enable-background="new 0 0 339.3 88.9" xml:space="preserve">
<g>
	<path fill-rule="evenodd" clip-rule="evenodd" fill="#EF7C00" d="M86.4,0h233.2c10.8,0,19.6,8.8,19.6,19.6v49.7
		c0,10.8-8.8,19.6-19.6,19.6H86.4c-10.8,0-19.6-8.8-19.6-19.6V56.5L41.3,42.3l25.5-15v-7.7C66.8,8.8,75.7,0,86.4,0"/>
	<path fill-rule="evenodd" clip-rule="evenodd" d="M0,21.1c0.1-7,2.1-16.4,9.5-19.7c1.8-0.8,3.6-1.3,7.4-1.4h31v17
		c-1.8,0-8.3,0-13.9,0c-3.9,0-7.5,0-8.8,0c-4.1,0.4-5.7,2.6-5.5,6.2v5.4l21.6,13.7L19.7,54.8l0,0h0v33.9H0V21.1z"/>
	<path fill-rule="evenodd" clip-rule="evenodd" fill="#FFFFFF" d="M282.8,25.8c-3.1,2-4.7,4.6-5.5,7.5c-0.3,1.1-0.4,0.9,0.7,0.9
		c3.2,0,6.4,0,9.6,0c1.2-1.7,2.8-3,4.8-3.5c3.4-0.9,10.1,1,9.4,5.4c-0.5,2.8-5.5,3.8-7.9,4.2c-2.6,0.5-5.1,0.9-7.7,1.6
		c-3.3,0.9-5.6,1.5-7.5,4.4c-3.5,5.3-3.2,14.6,2.7,18.3c7.8,4.9,21.7,3.5,27.7-5.5c2.7-4.1,2.2-6.4,2.2-11c0-4.1,0-7.9,0-12.2
		c0-3.1,0.2-4.1-1.6-6.8c-1.2-1.8-2.8-3-4.6-4C298.6,21.7,289,21.8,282.8,25.8 M301.4,44.7c0,1.5,0,3,0,4.5c0,4-0.1,6.1-4,8.5
		c-2.1,1.3-4.8,1.8-7.4,1.2c-3-0.6-5-2.8-4.4-6.7C286.8,44.9,295.7,47.8,301.4,44.7z"/>
	<path fill-rule="evenodd" clip-rule="evenodd" fill="#FFFFFF" d="M267.5,24.7c-1.8-1.6-4.1-2-6.7-1.6c-1.9,0.3-1.5,0.2-1.5,2.1
		v41.5h10V30.5C269.3,27.8,269.7,26.7,267.5,24.7"/>
	<path fill-rule="evenodd" clip-rule="evenodd" fill="#FFFFFF" d="M267.4,11.4c-1.7-1.5-3.9-1.9-6.4-1.5c-1.9,0.3-1.8,0-1.8,1.7v7
		h10C269.3,15.5,269.9,13.6,267.4,11.4"/>
	<path fill-rule="evenodd" clip-rule="evenodd" fill="#FFFFFF" d="M247.4,11.3c-1.7-1.5-3.8-1.9-6.3-1.6c-2.3,0.3-1.9,0.3-1.9,2.5
		c0,5.1,0,10.7,0,16c-4.5-7.1-16-7-22.2-1.8c-4.7,4-6.7,8.9-6.8,15.1c-0.2,6.7-0.2,12.9,3.7,18.6c6,8.7,21.3,9.2,29,2.7
		c6.1-5.2,6.3-9.5,6.3-17c0-9.2,0-19.6,0-28.8C249.2,14.4,249.6,13.3,247.4,11.3 M229.7,31.2c5.7,0,10.3,6.2,10.3,13.8
		c0,7.6-4.6,13.8-10.3,13.8c-5.7,0-10.3-6.2-10.3-13.8C219.3,37.4,223.9,31.2,229.7,31.2z"/>
	<path fill-rule="evenodd" clip-rule="evenodd" fill="#FFFFFF" d="M175.4,47.4l29-0.2c0.3-12.8-4.8-23.8-18.5-24.7
		c-7.3-0.5-13,1.7-17.1,7.9c-3.5,5.3-4,10.7-3.6,16.9c0.1,1.4,0.3,2.8,0.5,4.1c1.3,5.1,3.3,8.7,5.9,11.2c7.3,6.9,20.1,6.6,27.1-0.9
		c2.1-2.2,3.6-4.8,4.7-7.6c-3.1,0-6.3,0-9.4,0C185.9,62.8,174.9,57.6,175.4,47.4 M175.6,40.2c6,0,12,0,18.1,0
		c-0.4-3-1.5-5.1-3.2-6.7C184.6,28,176.2,32.9,175.6,40.2z"/>
	<path fill-rule="evenodd" clip-rule="evenodd" fill="#FFFFFF" d="M95,37.3l0.2,29.4h10c0-9.2,0-18.8,0-28c0.5-8.4,15.9-9.3,15.7,0
		v28h10.8v-28c0.7-9.4,15.9-8.6,15.8,0c0,6.5,0,13,0,19.4c-0.3,7.3,3.3,9.1,8.6,8.5c0.5-0.1,1.1-0.1,1.5-0.3l0-26.2
		c0-5.1,0.8-7.6-2.8-11.6c-6.9-7.7-21.9-8-28.5-1c-4.8-5.1-14.2-6.3-21.6-3.5C98.1,26.5,95,30.2,95,37.3"/>
</g>
</svg>
