<?xml version="1.0" encoding="utf-8"?>
<!-- Generator: Adobe Illustrator 19.0.0, SVG Export Plug-In . SVG Version: 6.00 Build 0)  -->
<svg version="1.1" id="Слой_1" xmlns="http://www.w3.org/2000/svg" xmlns:xlink="http://www.w3.org/1999/xlink" x="0px" y="0px"
	 viewBox="0 0 500 500" enable-background="new 0 0 500 500" xml:space="preserve">
<path id="XMLID_3_" d="M482.8,500.1H145.4c-9.4,0-17.1-7.6-17.1-17.1s7.6-17.1,17.1-17.1h320.3V34.3h-30.5
	c-9.4,0-17.1-7.6-17.1-17.1s7.6-17.1,17.1-17.1h47.6c9.4,0,17.1,7.6,17.1,17.1V483C499.9,492.4,492.3,500.1,482.8,500.1z"/>
<path id="XMLID_42_" d="M64.7,500.1H17.1C7.6,500.1,0,492.4,0,483V17.3C0,7.8,7.6,0.2,17.1,0.2h345.7c9.4,0,17.1,7.6,17.1,17.1
	s-7.6,17.1-17.1,17.1H34.2v431.6h30.5c9.4,0,17.1,7.6,17.1,17.1S74.1,500.1,64.7,500.1z"/>
<g id="XMLID_43_">
	<g id="XMLID_44_">
		<path id="XMLID_50_" d="M231.4,327.4c-29.3-3.1-55.8-10.3-78.5-28c-2.8-2.2-5.7-4.3-8.3-6.8
			c-9.9-9.5-10.9-20.4-3.1-31.7c6.7-9.6,18-12.2,29.7-6.7c2.3,1.1,4.4,2.4,6.5,3.8c42.2,29,100.2,29.8,142.6,1.3
			c4.2-3.2,8.7-5.8,13.9-7.2c10.1-2.6,19.5,1.1,25,10c6.2,10.1,6.1,20-1.5,27.8c-11.7,12-25.8,20.7-41.5,26.8
			c-14.8,5.7-31,8.6-47.1,10.6c2.4,2.6,3.6,3.9,5.1,5.5c21.8,21.9,43.7,43.7,65.4,65.7c7.4,7.5,8.9,16.8,4.9,25.5
			c-4.5,9.5-14.4,15.8-24.2,15.1c-6.2-0.4-11-3.5-15.3-7.8c-16.5-16.6-33.2-32.8-49.3-49.7c-4.7-4.9-6.9-4-11.1,0.3
			c-16.6,17-33.4,33.8-50.3,50.5c-7.6,7.5-16.6,8.8-25.4,4.6c-9.4-4.5-15.3-14.1-14.9-23.7c0.3-6.5,3.5-11.5,8-15.9
			c21.6-21.5,43.1-43.1,64.6-64.7C228,331.1,229.3,329.6,231.4,327.4z"/>
		<path id="XMLID_45_" d="M249.2,252.3c-52.4-0.2-95.3-43.6-95-96c0.3-53,43.3-95.7,96.1-95.6
			c53,0.1,95.5,43.5,95.2,97.1C345.4,210.1,302.1,252.5,249.2,252.3z M296.8,156.4c-0.1-26-20.8-46.8-46.8-46.8
			c-26.2,0-47.1,21.1-46.9,47.4c0.2,25.9,21.1,46.5,47.2,46.4C276.2,203.3,296.9,182.5,296.8,156.4z"/>
	</g>
</g>
</svg>
