<?xml version="1.0" encoding="utf-8"?>
<!-- Generator: Adobe Illustrator 19.0.0, SVG Export Plug-In . SVG Version: 6.00 Build 0)  -->
<svg version="1.1" id="Слой_1" xmlns="http://www.w3.org/2000/svg" xmlns:xlink="http://www.w3.org/1999/xlink" x="0px" y="0px"
	 viewBox="0 0 500 500" enable-background="new 0 0 500 500" xml:space="preserve">
<path id="XMLID_3_" d="M482.8,500.1H145.4c-9.4,0-17.1-7.6-17.1-17.1s7.6-17.1,17.1-17.1h320.3V34.3h-30.5
	c-9.4,0-17.1-7.6-17.1-17.1s7.6-17.1,17.1-17.1h47.6c9.4,0,17.1,7.6,17.1,17.1V483C499.9,492.4,492.3,500.1,482.8,500.1z"/>
<path id="XMLID_42_" d="M64.7,500.1H17.1C7.6,500.1,0,492.4,0,483V17.3C0,7.8,7.6,0.2,17.1,0.2h345.7c9.4,0,17.1,7.6,17.1,17.1
	s-7.6,17.1-17.1,17.1H34.2v431.6h30.5c9.4,0,17.1,7.6,17.1,17.1S74.1,500.1,64.7,500.1z"/>
<g id="XMLID_43_">
	<g id="XMLID_44_">
		<path id="XMLID_45_" d="M415.8,148.9c-12,5.3-24.8,8.9-38.3,10.5c13.8-8.2,24.3-21.3,29.3-36.9
			c-12.9,7.6-27.2,13.2-42.4,16.2c-12.2-13-29.5-21.1-48.7-21.1c-36.8,0-66.7,29.8-66.7,66.6c0,5.2,0.6,10.3,1.7,15.2
			c-55.4-2.8-104.5-29.3-137.4-69.6c-5.7,9.8-9,21.3-9,33.5c0,23.1,11.8,43.5,29.6,55.5c-10.9-0.4-21.2-3.4-30.2-8.4v0.8
			c0,32.3,23,59.2,53.5,65.4c-5.6,1.5-11.5,2.3-17.6,2.3c-4.3,0-8.5-0.4-12.5-1.2c8.5,26.5,33.1,45.8,62.3,46.3
			c-22.8,17.9-51.6,28.5-82.8,28.5c-5.4,0-10.7-0.3-15.9-0.9c29.5,18.9,64.5,30,102.2,30c122.6,0,189.6-101.6,189.6-189.6l-0.2-8.6
			C395.6,174,406.9,162.2,415.8,148.9z"/>
	</g>
</g>
</svg>
