<?xml version="1.0" encoding="utf-8"?>
<!-- Generator: Adobe Illustrator 19.0.0, SVG Export Plug-In . SVG Version: 6.00 Build 0)  -->
<svg version="1.1" id="Слой_1" xmlns="http://www.w3.org/2000/svg" xmlns:xlink="http://www.w3.org/1999/xlink" x="0px" y="0px"
	 viewBox="0 0 500 500" enable-background="new 0 0 500 500" xml:space="preserve">
<path id="XMLID_3_" d="M482.8,500.1H145.4c-9.4,0-17.1-7.6-17.1-17.1s7.6-17.1,17.1-17.1h320.3V34.3h-30.5
	c-9.4,0-17.1-7.6-17.1-17.1s7.6-17.1,17.1-17.1h47.6c9.4,0,17.1,7.6,17.1,17.1V483C499.9,492.4,492.3,500.1,482.8,500.1z"/>
<path id="XMLID_42_" d="M64.7,500.1H17.1C7.6,500.1,0,492.4,0,483V17.3C0,7.8,7.6,0.2,17.1,0.2h345.7c9.4,0,17.1,7.6,17.1,17.1
	s-7.6,17.1-17.1,17.1H34.2v431.6h30.5c9.4,0,17.1,7.6,17.1,17.1S74.1,500.1,64.7,500.1z"/>
<g id="XMLID_46_"> 
	<path id="XMLID_47_"  d="M420.9,332.5c-0.4-0.9-0.8-1.7-1.2-2.3c-6.1-11-17.8-24.6-35.1-40.6l-0.4-0.4l-0.2-0.2
		l-0.2-0.2h-0.2c-7.8-7.5-12.8-12.5-14.9-15.1c-3.8-4.9-4.7-9.9-2.6-14.9c1.5-3.8,7-11.8,16.5-24.1c5-6.5,9-11.7,11.9-15.6
		c21.2-28.2,30.4-46.2,27.6-54l-1.1-1.8c-0.7-1.1-2.6-2.1-5.7-3c-3.1-0.9-7-1.1-11.8-0.5l-52.9,0.4c-0.9-0.3-2.1-0.3-3.7,0.1
		c-1.6,0.4-2.4,0.6-2.4,0.6l-0.9,0.5l-0.7,0.6c-0.6,0.4-1.3,1-2,1.9c-0.7,0.9-1.3,2-1.8,3.2c-5.8,14.8-12.3,28.6-19.7,41.3
		c-4.5,7.6-8.7,14.2-12.5,19.7c-3.8,5.6-7,9.7-9.5,12.3c-2.6,2.6-4.9,4.7-7,6.3c-2.1,1.6-3.7,2.3-4.8,2c-1.1-0.2-2.1-0.5-3.1-0.7
		c-1.7-1.1-3.1-2.6-4.1-4.5c-1-1.9-1.7-4.3-2.1-7.2c-0.4-2.9-0.6-5.4-0.6-7.4c-0.1-2.1,0-5,0.1-8.8c0.1-3.8,0.2-6.4,0.2-7.7
		c0-4.7,0.1-9.7,0.3-15.2c0.2-5.4,0.3-9.8,0.5-12.9c0.1-3.2,0.2-6.6,0.2-10.1c0-3.6-0.2-6.3-0.6-8.4c-0.4-2-1.1-4-1.9-5.9
		c-0.9-1.9-2.1-3.4-3.8-4.4c-1.7-1-3.7-1.9-6.2-2.5c-6.5-1.5-14.8-2.3-24.8-2.4c-22.8-0.2-37.4,1.2-43.9,4.4c-2.6,1.3-4.9,3.2-7,5.5
		c-2.2,2.7-2.5,4.2-0.9,4.4c7.3,1.1,12.6,3.7,15.6,7.9l1.1,2.2c0.9,1.6,1.7,4.4,2.6,8.5c0.9,4,1.4,8.5,1.7,13.4
		c0.6,8.9,0.6,16.6,0,23c-0.6,6.4-1.2,11.3-1.7,14.9s-1.4,6.4-2.5,8.6c-1.1,2.2-1.8,3.6-2.2,4c-0.4,0.5-0.7,0.8-0.9,0.9
		c-1.6,0.6-3.2,0.9-5,0.9c-1.7,0-3.8-0.9-6.2-2.6c-2.4-1.7-5-4.1-7.6-7.1c-2.6-3-5.6-7.2-8.9-12.6c-3.3-5.4-6.7-11.8-10.3-19.1
		l-2.9-5.3c-1.8-3.4-4.3-8.4-7.5-15c-3.2-6.6-6-12.9-8.5-19c-1-2.6-2.4-4.5-4.4-5.9l-0.9-0.6c-0.6-0.5-1.6-1-2.9-1.6
		c-1.3-0.6-2.8-0.9-4.2-1.2L81.8,160c-5.1,0-8.6,1.2-10.5,3.5l-0.7,1.1c-0.4,0.6-0.6,1.6-0.6,2.9c0,1.3,0.4,3,1.1,5
		c7.3,17.3,15.3,33.9,24,50s16.1,29,22.5,38.8c6.4,9.8,12.9,19,19.5,27.7c6.6,8.7,11,14.3,13.1,16.7c2.1,2.5,3.8,4.3,5.1,5.5
		l4.6,4.4c2.9,2.9,7.3,6.5,12.9,10.6c5.7,4.1,12,8.1,18.9,12.1c6.9,4,15,7.2,24.2,9.7c9.2,2.5,18.1,3.5,26.8,3h21.1
		c4.3-0.4,7.5-1.7,9.7-4l0.7-0.9c0.5-0.7,1-1.9,1.4-3.4c0.4-1.5,0.6-3.2,0.6-5.1c-0.1-5.3,0.3-10,1.2-14.2c0.9-4.2,2-7.4,3.1-9.6
		c1.2-2.1,2.5-4,3.9-5.4c1.5-1.5,2.5-2.4,3.1-2.7c0.6-0.3,1.1-0.5,1.5-0.6c2.9-1,6.4,0,10.4,2.8c4,2.9,7.7,6.4,11.2,10.7
		c3.5,4.2,7.7,9,12.6,14.2c4.9,5.3,9.2,9.2,12.9,11.8l3.7,2.2c2.5,1.5,5.6,2.8,9.6,4c3.9,1.2,7.3,1.5,10.3,0.9l47-0.7
		c4.7,0,8.3-0.8,10.8-2.3c2.6-1.5,4.1-3.2,4.6-5.1c0.5-1.8,0.5-3.9,0.1-6.2C421.8,335.1,421.4,333.5,420.9,332.5z"/>
</g>
</svg>
